<svg width="399" height="137" viewBox="0 0 399 137" fill="none" xmlns="http://www.w3.org/2000/svg">
<mask id="path-1-inside-1_341_1238" fill="white">
<path d="M107.39 68.8663L235 0L159.052 68.8663L190.844 87.5481L65 137L139.182 87.5481L107.39 68.8663Z"/>
</mask>
<path d="M235 0L398.901 180.755L119.12 -214.727L235 0ZM107.39 68.8663L-8.49031 -145.861L-389.621 59.8202L-16.2275 279.235L107.39 68.8663ZM139.182 87.5481L274.524 290.572L598.623 74.5175L262.799 -122.82L139.182 87.5481ZM65 137L-70.3418 -66.0237L154.24 364.095L65 137ZM190.844 87.5481L280.084 314.643L746.81 131.238L314.461 -122.82L190.844 87.5481ZM159.052 68.8663L-4.84895 -111.889L-250.738 111.073L35.4348 279.235L159.052 68.8663ZM119.12 -214.727L-8.49031 -145.861L223.27 283.594L350.88 214.727L119.12 -214.727ZM-16.2275 279.235L15.5647 297.916L262.799 -122.82L231.007 -141.502L-16.2275 279.235ZM3.84006 -115.476L-70.3418 -66.0237L200.342 340.024L274.524 290.572L3.84006 -115.476ZM154.24 364.095L280.084 314.643L101.604 -139.547L-24.2396 -90.0953L154.24 364.095ZM314.461 -122.82L282.669 -141.502L35.4348 279.235L67.227 297.916L314.461 -122.82ZM322.953 249.622L398.901 180.755L71.0991 -180.755L-4.84895 -111.889L322.953 249.622Z" fill="url(#paint0_linear_341_1238)" mask="url(#path-1-inside-1_341_1238)"/>
<path fill-rule="evenodd" clip-rule="evenodd" d="M248.703 59.9409C248.703 49.3636 240.833 41.9773 229.91 41.9773C218.928 41.9773 211 49.2455 211 59.7636C211 70.0455 218.4 76.6636 227.855 76.6636C232.435 76.6636 235.783 74.8909 237.838 72.2318L238.249 75.8364H248.703V59.9409ZM236.311 59.4682C236.311 63.6045 233.669 66.3818 229.91 66.3818C226.093 66.3818 223.391 63.5455 223.391 59.35C223.391 55.1546 226.093 52.2591 229.851 52.2591C233.61 52.2591 236.311 55.2136 236.311 59.4682ZM249.178 42.8046L260.336 70.4C262.039 74.4773 264.741 76.4273 268.734 76.4273C272.728 76.4273 275.429 74.4773 277.073 70.4L288.29 42.8046H275.253L268.734 62.4818H268.675L262.215 42.8046H249.178ZM325.267 59.9409C325.267 49.3636 317.397 41.9773 306.474 41.9773C295.492 41.9773 287.563 49.2455 287.563 59.7636C287.563 70.0455 294.963 76.6636 304.419 76.6636C308.999 76.6636 312.347 74.8909 314.402 72.2318L314.813 75.8364H325.267V59.9409ZM312.875 59.4682C312.875 63.6045 310.233 66.3818 306.474 66.3818C302.656 66.3818 299.955 63.5455 299.955 59.35C299.955 55.1546 302.656 52.2591 306.415 52.2591C310.174 52.2591 312.875 55.2136 312.875 59.4682ZM342.589 75.8364V58.05C342.589 54.6227 344.762 52.2591 347.698 52.2591C350.811 52.2591 352.925 54.6227 352.925 58.05V75.8364H365.14V59.8818C365.14 48.7136 358.034 41.9773 347.698 41.9773C337.539 41.9773 330.315 48.7136 330.315 59.8818V75.8364H342.589ZM381.15 74.9636C383.513 76.0789 386.499 76.6364 390.113 76.6364C390.836 76.6364 391.775 76.5393 392.932 76.3455C394.088 76.2 395.005 76.0061 395.679 75.7636C396.788 75.3273 397.558 74.6243 397.991 73.6546C398.425 72.6364 398.642 71.4 398.642 69.9455C398.642 68.1516 398.403 67.0121 397.919 66.5273C397.438 65.9939 396.812 65.7516 396.04 65.8C395.511 65.8 394.933 65.8727 394.305 66.0182C393.68 66.1636 393.029 66.2364 392.354 66.2364C390.524 66.2364 389.173 65.8243 388.306 65C387.488 64.1273 387.077 62.7939 387.077 61V49.5818H393.004C394.594 49.5818 395.801 49.1697 396.618 48.3455C397.486 47.5212 397.919 46.3333 397.919 44.7818C397.919 43.2303 397.486 42.0667 396.618 41.2909C395.801 40.4667 394.594 40.0546 393.004 40.0546H387.077V35.5455C387.077 33.4121 386.524 31.7879 385.415 30.6727C384.308 29.5576 382.718 29 380.644 29C378.573 29 376.983 29.5576 375.874 30.6727C374.767 31.7879 374.211 33.4121 374.211 35.5455V40.0546H371.754C370.214 40.0546 369.007 40.4667 368.14 41.2909C367.322 42.0667 366.911 43.2303 366.911 44.7818C366.911 46.3333 367.322 47.5212 368.14 48.3455C369.007 49.1697 370.214 49.5818 371.754 49.5818H374.211V61.4364C374.211 64.8302 374.79 67.6666 375.946 69.9455C377.103 72.1757 378.837 73.8484 381.15 74.9636Z" fill="url(#paint1_linear_341_1238)"/>
<path fill-rule="evenodd" clip-rule="evenodd" d="M37.7029 60.4364C37.7029 49.8591 29.8335 42.4727 18.9102 42.4727C7.92818 42.4727 0 49.7409 0 60.2591C0 70.5409 7.39964 77.1591 16.8547 77.1591C21.4355 77.1591 24.7829 75.3864 26.8384 72.7273L27.2495 76.3318H37.7029V60.4364ZM25.3115 59.9636C25.3115 64.1 22.6687 66.8773 18.9102 66.8773C15.0929 66.8773 12.3915 64.0409 12.3915 59.8455C12.3915 55.65 15.0929 52.7546 18.8515 52.7546C22.61 52.7546 25.3115 55.7091 25.3115 59.9636ZM55.0266 76.3318V58.5455C55.0266 55.1182 57.1995 52.7546 60.1358 52.7546C63.2484 52.7546 65.3626 55.1182 65.3626 58.5455V76.3318H77.5778V60.3773C77.5778 49.2091 70.4718 42.4727 60.1358 42.4727C49.976 42.4727 42.7526 49.2091 42.7526 60.3773V76.3318H55.0266ZM82.9037 35.1455C82.9037 38.6909 85.5464 41.2909 89.1875 41.2909C92.8874 41.2909 95.5301 38.6909 95.5301 35.1455C95.5301 31.5409 92.8874 29 89.1875 29C85.5464 29 82.9037 31.5409 82.9037 35.1455ZM83.1386 76.3318H95.4126V43.3H83.1386V76.3318Z" fill="white"/>
<defs>
<linearGradient id="paint0_linear_341_1238" x1="150" y1="0" x2="150" y2="137" gradientUnits="userSpaceOnUse">
<stop stop-color="#867CF5"/>
<stop offset="1" stop-color="#DF67F4"/>
</linearGradient>
<linearGradient id="paint1_linear_341_1238" x1="304.821" y1="29" x2="304.821" y2="76.6636" gradientUnits="userSpaceOnUse">
<stop stop-color="#867CF5"/>
<stop offset="1" stop-color="#DF67F4"/>
</linearGradient>
</defs>
</svg>
