<svg width="170" height="137" viewBox="0 0 170 137" fill="none" xmlns="http://www.w3.org/2000/svg">
<mask id="path-1-inside-1_754_757" fill="white">
<path d="M42.3896 68.8663L170 0L94.0519 68.8663L125.844 87.5481L0 137L74.1818 87.5481L42.3896 68.8663Z"/>
</mask>
<path d="M170 0L333.901 180.755L54.1201 -214.727L170 0ZM42.3896 68.8663L-73.4903 -145.861L-454.621 59.8202L-81.2275 279.235L42.3896 68.8663ZM74.1818 87.5481L209.524 290.572L533.623 74.5175L197.799 -122.82L74.1818 87.5481ZM0 137L-135.342 -66.0237L89.2396 364.095L0 137ZM125.844 87.5481L215.084 314.643L681.81 131.238L249.461 -122.82L125.844 87.5481ZM94.0519 68.8663L-69.8489 -111.889L-315.738 111.073L-29.5652 279.235L94.0519 68.8663ZM54.1201 -214.727L-73.4903 -145.861L158.27 283.594L285.88 214.727L54.1201 -214.727ZM-81.2275 279.235L-49.4353 297.916L197.799 -122.82L166.007 -141.502L-81.2275 279.235ZM-61.1599 -115.476L-135.342 -66.0237L135.342 340.024L209.524 290.572L-61.1599 -115.476ZM89.2396 364.095L215.084 314.643L36.6045 -139.547L-89.2396 -90.0953L89.2396 364.095ZM249.461 -122.82L217.669 -141.502L-29.5652 279.235L2.22696 297.916L249.461 -122.82ZM257.953 249.622L333.901 180.755L6.0991 -180.755L-69.8489 -111.889L257.953 249.622Z" fill="url(#paint0_linear_754_757)" mask="url(#path-1-inside-1_754_757)"/>
<defs>
<linearGradient id="paint0_linear_754_757" x1="85" y1="0" x2="85" y2="137" gradientUnits="userSpaceOnUse">
<stop stop-color="#867CF5"/>
<stop offset="1" stop-color="#DF67F4"/>
</linearGradient>
</defs>
</svg>
