<svg width="103" height="113" viewBox="0 0 103 113" fill="none" xmlns="http://www.w3.org/2000/svg">
<mask id="path-1-inside-1_233_3278" fill="white">
<path d="M25.6831 56.6129L103 0L56.9844 56.6129L76.2467 71.9706L0 112.623L44.9455 71.9706L25.6831 56.6129Z"/>
</mask>
<path d="M103 0L292.343 153.9L-41.15 -196.867L103 0ZM25.6831 56.6129L-118.467 -140.255L-376.064 48.3628L-126.428 247.396L25.6831 56.6129ZM44.9455 71.9706L208.622 252.93L421.645 60.2509L197.056 -118.813L44.9455 71.9706ZM0 112.623L-163.676 -68.3354L114.797 327.932L0 112.623ZM76.2467 71.9706L191.044 287.279L518.629 112.619L228.357 -118.813L76.2467 71.9706ZM56.9844 56.6129L-132.359 -97.2872L-287.714 93.8468L-95.1262 247.396L56.9844 56.6129ZM-41.15 -196.867L-118.467 -140.255L169.833 253.48L247.15 196.867L-41.15 -196.867ZM-126.428 247.396L-107.165 262.754L197.056 -118.813L177.794 -134.171L-126.428 247.396ZM-118.731 -108.988L-163.676 -68.3354L163.676 293.582L208.622 252.93L-118.731 -108.988ZM114.797 327.932L191.044 287.279L-38.5502 -143.338L-114.797 -102.685L114.797 327.932ZM228.357 -118.813L209.095 -134.171L-95.1262 247.396L-75.8639 262.754L228.357 -118.813ZM246.327 210.513L292.343 153.9L-86.343 -153.9L-132.359 -97.2872L246.327 210.513Z" fill="url(#paint0_linear_233_3278)" mask="url(#path-1-inside-1_233_3278)"/>
<defs>
<linearGradient id="paint0_linear_233_3278" x1="51.5" y1="0" x2="51.5" y2="112.623" gradientUnits="userSpaceOnUse">
<stop stop-color="#66007F"/>
<stop offset="1" stop-color="#8B30FF"/>
</linearGradient>
</defs>
</svg>
